<?xml version="1.0" encoding="utf-8"?>
<!-- Generator: Adobe Illustrator 17.0.0, SVG Export Plug-In . SVG Version: 6.00 Build 0)  -->
<!DOCTYPE svg PUBLIC "-//W3C//DTD SVG 1.1//EN" "http://www.w3.org/Graphics/SVG/1.1/DTD/svg11.dtd">
<svg version="1.1" id="Calque_1" xmlns="http://www.w3.org/2000/svg" xmlns:xlink="http://www.w3.org/1999/xlink" x="0px" y="0px"
	 width="966px" height="620px" viewBox="0 0 966 620" enable-background="new 0 0 966 620" xml:space="preserve">
<path fill="#030202" d="M0.061,601.964c0-188.643,0-377.286,0-565.929c1.191-3.523,3.185-6.241,6.568-8.161
	C22.822,18.686,38.921,9.332,55.054,0.038c297.296,0,594.592,0,891.888,0c10.049,2.616,16.741,8.589,18.998,18.998
	c0,193.976,0,387.951,0,581.927c-2.255,10.41-8.944,16.387-18.998,18.998c-309.628,0-619.256,0-928.884,0
	C8.307,617.714,2.265,611.758,0.061,601.964z"/>
</svg>
